{"glyphs":{"0":{"ha":1042,"x_min":-10,"x_max":868,"o":"m 347 353 l 511 353 l 511 1385 l 347 1385 l 347 353 m -10 -6 l -10 1742 l 868 1742 l 868 -6 l -10 -6 z "},"1":{"ha":694,"x_min":-10,"x_max":521,"o":"m 521 -6 l 164 -6 l 164 1385 l -10 1385 l -10 1742 l 521 1742 l 521 -6 z "},"2":{"ha":1042,"x_min":-10,"x_max":868,"o":"m 868 -6 l -10 -6 l -10 1047 l 511 1047 l 511 1385 l -10 1385 l -10 1742 l 868 1742 l 868 690 l 347 690 l 347 353 l 868 353 l 868 -6 z "},"3":{"ha":1042,"x_min":-10,"x_max":868,"o":"m -10 -6 l -10 353 l 511 353 l 511 690 l -10 690 l -10 1047 l 511 1047 l 511 1385 l -10 1385 l -10 1742 l 868 1742 l 868 -6 l -10 -6 z "},"4":{"ha":1042,"x_min":-10,"x_max":868,"o":"m 511 690 l -10 690 l -10 1742 l 347 1742 l 347 1047 l 511 1047 l 511 1742 l 868 1742 l 868 -6 l 511 -6 l 511 690 z "},"5":{"ha":1042,"x_min":-10,"x_max":868,"o":"m 868 -6 l -10 -6 l -10 353 l 511 353 l 511 690 l -10 690 l -10 1742 l 868 1742 l 868 1385 l 347 1385 l 347 1047 l 868 1047 l 868 -6 z "},"6":{"ha":1042,"x_min":-10,"x_max":868,"o":"m 347 353 l 511 353 l 511 690 l 347 690 l 347 353 m -10 -6 l -10 1742 l 868 1742 l 868 1385 l 347 1385 l 347 1047 l 868 1047 l 868 -6 l -10 -6 z "},"7":{"ha":1042,"x_min":-10,"x_max":868,"o":"m 868 -6 l 511 -6 l 511 1385 l -10 1385 l -10 1742 l 868 1742 l 868 -6 z "},"8":{"ha":1042,"x_min":-10,"x_max":868,"o":"m -10 -6 l -10 1742 l 868 1742 l 868 -6 l -10 -6 m 511 694 l 347 694 l 347 353 l 511 353 l 511 694 m 347 1042 l 511 1042 l 511 1385 l 347 1385 l 347 1042 z "},"9":{"ha":1042,"x_min":-10,"x_max":868,"o":"m 347 1047 l 511 1047 l 511 1385 l 347 1385 l 347 1047 m -10 -6 l -10 353 l 511 353 l 511 690 l -10 690 l -10 1742 l 868 1742 l 868 -6 l -10 -6 z "}," ":{"ha":521,"x_min":0,"x_max":0,"o":""},"!":{"ha":521,"x_min":-10,"x_max":347,"o":"m 347 517 l -10 517 l -10 1742 l 347 1742 l 347 517 m 347 -6 l -10 -6 l -10 353 l 347 353 l 347 -6 z "},"\"":{"ha":1042,"x_min":-10,"x_max":868,"o":"m 868 1038 l 511 1038 l 511 1742 l 868 1742 l 868 1038 m 347 1038 l -10 1038 l -10 1742 l 347 1742 l 347 1038 z "},"#":{"ha":1389,"x_min":-10,"x_max":1215,"o":"m 521 700 l 685 700 l 685 864 l 521 864 l 521 700 m 164 343 l -10 343 l -10 700 l 164 700 l 164 864 l -10 864 l -10 1221 l 164 1221 l 164 1568 l 521 1568 l 521 1221 l 685 1221 l 685 1568 l 1042 1568 l 1042 1221 l 1215 1221 l 1215 864 l 1042 864 l 1042 700 l 1215 700 l 1215 343 l 1042 343 l 1042 -6 l 685 -6 l 685 343 l 521 343 l 521 -6 l 164 -6 l 164 343 z "},"$":{"ha":1215,"x_min":-10,"x_max":1042,"o":"m 694 -179 l 338 -179 l 338 169 l -10 169 l -10 526 l 685 526 l 685 690 l -10 690 l -10 1568 l 338 1568 l 338 1915 l 694 1915 l 694 1568 l 1042 1568 l 1042 1211 l 347 1211 l 347 1047 l 1042 1047 l 1042 169 l 694 169 l 694 -179 z "},"%":{"ha":1563,"x_min":-10,"x_max":1389,"o":"m 174 521 l 338 521 l 338 700 l 347 700 l 347 868 l 511 868 l 511 1047 l 521 1047 l 521 1211 l -10 1211 l -10 1742 l 521 1742 l 521 1211 l 685 1211 l 685 1394 l 694 1394 l 694 1563 l 858 1563 l 858 1742 l 1215 1742 l 1215 1385 l 1042 1385 l 1042 1038 l 868 1038 l 868 690 l 694 690 l 694 343 l 521 343 l 521 -6 l 164 -6 l 164 353 l 174 353 l 174 521 m 858 -6 l 858 526 l 1389 526 l 1389 -6 l 858 -6 z "},"&":{"ha":1563,"x_min":-10,"x_max":1389,"o":"m 347 1047 l 511 1047 l 511 1385 l 347 1385 l 347 1047 m 347 690 l 347 353 l 511 353 l 511 690 l 347 690 m -10 -6 l -10 1742 l 868 1742 l 868 700 l 1032 700 l 1032 874 l 1389 874 l 1389 517 l 1215 517 l 1215 353 l 1389 353 l 1389 -6 l 1032 -6 l 1032 169 l 868 169 l 868 -6 l -10 -6 z "},"'":{"ha":521,"x_min":-10,"x_max":347,"o":"m 347 1038 l -10 1038 l -10 1742 l 347 1742 l 347 1038 z "},"(":{"ha":694,"x_min":-10,"x_max":521,"o":"m 521 -179 l 164 -179 l 164 -6 l -10 -6 l -10 1742 l 164 1742 l 164 1915 l 521 1915 l 521 1558 l 347 1558 l 347 179 l 521 179 l 521 -179 z "},")":{"ha":694,"x_min":-10,"x_max":521,"o":"m -10 -179 l 347 -179 l 347 -6 l 521 -6 l 521 1742 l 347 1742 l 347 1915 l -10 1915 l -10 1558 l 164 1558 l 164 179 l -10 179 l -10 -179 z "},"*":{"ha":1389,"x_min":-10,"x_max":1215,"o":"m 521 510 l 164 510 l 164 693 l 338 693 l 338 857 l -10 857 l -10 1040 l 338 1040 l 338 1204 l 164 1204 l 164 1388 l 521 1388 l 521 1214 l 685 1214 l 685 1388 l 1042 1388 l 1042 1204 l 868 1204 l 868 1040 l 1215 1040 l 1215 857 l 868 857 l 868 693 l 1042 693 l 1042 510 l 685 510 l 685 683 l 521 683 l 521 510 z "},"+":{"ha":1215,"x_min":-10,"x_max":1042,"o":"m 338 517 l -10 517 l -10 874 l 338 874 l 338 1394 l 694 1394 l 694 874 l 1042 874 l 1042 517 l 694 517 l 694 -6 l 338 -6 l 338 517 z "},",":{"ha":521,"x_min":-10,"x_max":347,"o":"m 347 -353 l -10 -353 l -10 353 l 347 353 l 347 -353 z "},"-":{"ha":1042,"x_min":-10,"x_max":868,"o":"m 868 510 l -10 510 l -10 867 l 868 867 l 868 510 z "},".":{"ha":521,"x_min":-10,"x_max":347,"o":"m 347 -6 l -10 -6 l -10 353 l 347 353 l 347 -6 z "},"/":{"ha":1215,"x_min":-10,"x_max":1042,"o":"m 347 -6 l -10 -6 l -10 526 l 164 526 l 164 874 l 338 874 l 338 1221 l 511 1221 l 511 1568 l 685 1568 l 685 1742 l 1042 1742 l 1042 1385 l 868 1385 l 868 1038 l 694 1038 l 694 690 l 521 690 l 521 343 l 347 343 l 347 -6 z "},":":{"ha":521,"x_min":-10,"x_max":347,"o":"m 347 690 l -10 690 l -10 1047 l 347 1047 l 347 690 m 347 169 l -10 169 l -10 526 l 347 526 l 347 169 z "},";":{"ha":521,"x_min":-10,"x_max":347,"o":"m 347 -353 l -10 -353 l -10 353 l 347 353 l 347 -353 m -6 868 l 343 868 l 343 521 l -6 521 l -6 868 z "},"<":{"ha":1215,"x_min":-10,"x_max":1042,"o":"m 1042 -6 l 511 -6 l 511 169 l 338 169 l 338 343 l 164 343 l 164 517 l -10 517 l -10 700 l 164 700 l 164 874 l 338 874 l 338 1047 l 511 1047 l 511 1221 l 1042 1221 l 1042 1038 l 868 1038 l 868 864 l 694 864 l 694 690 l 521 690 l 521 526 l 694 526 l 694 353 l 868 353 l 868 179 l 1042 179 l 1042 -6 z "},"=":{"ha":1042,"x_min":-10,"x_max":868,"o":"m 868 683 l -10 683 l -10 1040 l 868 1040 l 868 683 m 868 163 l -10 163 l -10 519 l 868 519 l 868 163 z "},">":{"ha":1215,"x_min":-10,"x_max":1042,"o":"m -10 -6 l 521 -6 l 521 169 l 694 169 l 694 343 l 868 343 l 868 517 l 1042 517 l 1042 700 l 868 700 l 868 874 l 694 874 l 694 1047 l 521 1047 l 521 1221 l -10 1221 l -10 1038 l 164 1038 l 164 864 l 338 864 l 338 690 l 511 690 l 511 526 l 338 526 l 338 353 l 164 353 l 164 179 l -10 179 l -10 -6 z "},"?":{"ha":1215,"x_min":-10,"x_max":1042,"o":"m 694 517 l 338 517 l 338 1047 l 685 1047 l 685 1385 l 347 1385 l 347 1211 l -10 1211 l -10 1742 l 1042 1742 l 1042 690 l 694 690 l 694 517 m 694 -6 l 338 -6 l 338 353 l 694 353 l 694 -6 z "},"@":{"ha":1215,"x_min":-10,"x_max":1042,"o":"m -10 -6 l -10 1568 l 1042 1568 l 1042 517 l 511 517 l 511 1047 l 685 1047 l 685 1211 l 347 1211 l 347 353 l 1042 353 l 1042 -6 l -10 -6 z "},"A":{"ha":1215,"x_min":-10,"x_max":1042,"o":"m 347 1385 l 347 1047 l 685 1047 l 685 1385 l 347 1385 m 347 -6 l -10 -6 l -10 1742 l 1042 1742 l 1042 -6 l 685 -6 l 685 690 l 347 690 l 347 -6 z "},"B":{"ha":1215,"x_min":-10,"x_max":1042,"o":"m 347 1385 l 347 1047 l 511 1047 l 511 1385 l 347 1385 m 347 353 l 685 353 l 685 690 l 347 690 l 347 353 m -10 -6 l -10 1742 l 868 1742 l 868 874 l 1042 874 l 1042 -6 l -10 -6 z "},"C":{"ha":1215,"x_min":-10,"x_max":1042,"o":"m 164 -6 l 164 169 l -10 169 l -10 1568 l 164 1568 l 164 1742 l 868 1742 l 868 1568 l 1042 1568 l 1042 1038 l 685 1038 l 685 1385 l 347 1385 l 347 353 l 685 353 l 685 700 l 1042 700 l 1042 169 l 868 169 l 868 -6 l 164 -6 m 0 1736 l 164 1736 l 164 1568 l 0 1568 l 0 1736 m -10 169 l 164 169 l 164 -6 l -10 -6 l -10 169 m 868 174 l 1042 174 l 1042 0 l 868 0 l 868 174 m 868 1736 l 1042 1736 l 1042 1568 l 868 1568 l 868 1736 z "},"D":{"ha":1215,"x_min":-10,"x_max":1042,"o":"m 347 353 l 685 353 l 685 1385 l 347 1385 l 347 353 m -10 -6 l -10 1742 l 868 1742 l 868 1568 l 1042 1568 l 1042 169 l 868 169 l 868 -6 l -10 -6 z "},"E":{"ha":1042,"x_min":-10,"x_max":868,"o":"m 868 -6 l -10 -6 l -10 1742 l 868 1742 l 868 1385 l 347 1385 l 347 1047 l 868 1047 l 868 690 l 347 690 l 347 353 l 868 353 l 868 -6 z "},"F":{"ha":1042,"x_min":-10,"x_max":868,"o":"m 347 -6 l -10 -6 l -10 1742 l 868 1742 l 868 1385 l 347 1385 l 347 1047 l 868 1047 l 868 690 l 347 690 l 347 -6 z "},"G":{"ha":1215,"x_min":-10,"x_max":1042,"o":"m 164 -6 l 164 169 l -10 169 l -10 1568 l 164 1568 l 164 1742 l 1042 1742 l 1042 1385 l 347 1385 l 347 353 l 685 353 l 685 690 l 511 690 l 511 1047 l 1042 1047 l 1042 169 l 868 169 l 868 -6 l 164 -6 m 0 1736 l 164 1736 l 164 1568 l 0 1568 l 0 1736 m 868 169 l 1042 169 l 1042 0 l 868 0 l 868 169 m -10 169 l 164 169 l 164 -6 l -10 -6 l -10 169 z "},"H":{"ha":1215,"x_min":-10,"x_max":1042,"o":"m 347 -6 l -10 -6 l -10 1742 l 347 1742 l 347 1047 l 685 1047 l 685 1742 l 1042 1742 l 1042 -6 l 685 -6 l 685 690 l 347 690 l 347 -6 z "},"I":{"ha":521,"x_min":-10,"x_max":347,"o":"m 347 -6 l -10 -6 l -10 1742 l 347 1742 l 347 -6 z "},"J":{"ha":1215,"x_min":-10,"x_max":1042,"o":"m 164 -6 l 164 169 l -10 169 l -10 874 l 347 874 l 347 353 l 685 353 l 685 1742 l 1042 1742 l 1042 169 l 868 169 l 868 -6 l 164 -6 m -10 169 l 164 169 l 164 -6 l -10 -6 l -10 169 m 868 169 l 1042 169 l 1042 0 l 868 0 l 868 169 z "},"K":{"ha":1215,"x_min":-10,"x_max":1042,"o":"m 347 -6 l -10 -6 l -10 1742 l 347 1742 l 347 1047 l 685 1047 l 685 1742 l 1042 1742 l 1042 1038 l 868 1038 l 868 700 l 1042 700 l 1042 -6 l 685 -6 l 685 690 l 347 690 l 347 -6 z "},"L":{"ha":1042,"x_min":-10,"x_max":868,"o":"m -10 -6 l -10 1742 l 347 1742 l 347 353 l 868 353 l 868 -6 l -10 -6 z "},"M":{"ha":1910,"x_min":-10,"x_max":1736,"o":"m 347 -6 l -10 -6 l -10 1742 l 1736 1742 l 1736 -6 l 1379 -6 l 1379 1385 l 1042 1385 l 1042 -6 l 685 -6 l 685 1385 l 347 1385 l 347 -6 z "},"N":{"ha":1215,"x_min":-10,"x_max":1042,"o":"m 347 -6 l -10 -6 l -10 1742 l 1042 1742 l 1042 -6 l 685 -6 l 685 1385 l 347 1385 l 347 -6 z "},"O":{"ha":1215,"x_min":-10,"x_max":1042,"o":"m 347 353 l 685 353 l 685 1385 l 347 1385 l 347 353 m 164 -6 l 164 169 l -10 169 l -10 1568 l 164 1568 l 164 1742 l 868 1742 l 868 1568 l 1042 1568 l 1042 169 l 868 169 l 868 -6 l 164 -6 m 0 1736 l 164 1736 l 164 1568 l 0 1568 l 0 1736 m 868 1742 l 1042 1742 l 1042 1568 l 868 1568 l 868 1742 m 868 169 l 1042 169 l 1042 0 l 868 0 l 868 169 m -10 169 l 164 169 l 164 -6 l -10 -6 l -10 169 z "},"P":{"ha":1215,"x_min":-10,"x_max":1042,"o":"m 347 1385 l 347 1047 l 685 1047 l 685 1385 l 347 1385 m 347 -6 l -10 -6 l -10 1742 l 868 1742 l 868 1568 l 1042 1568 l 1042 864 l 868 864 l 868 690 l 347 690 l 347 -6 m 868 1742 l 1042 1742 l 1042 1568 l 868 1568 l 868 1742 m 868 864 l 1042 864 l 1042 694 l 868 694 l 868 864 z "},"Q":{"ha":1215,"x_min":-10,"x_max":1042,"o":"m 347 353 l 685 353 l 685 1385 l 347 1385 l 347 353 m 164 -6 l 164 169 l -10 169 l -10 1568 l 164 1568 l 164 1742 l 868 1742 l 868 1568 l 1042 1568 l 1042 169 l 868 169 l 868 -6 l 164 -6 m 347 -6 l 690 -6 l 690 -347 l 347 -347 l 347 -6 m 0 1736 l 164 1736 l 164 1568 l 0 1568 l 0 1736 m 868 1742 l 1042 1742 l 1042 1568 l 868 1568 l 868 1742 m 868 169 l 1042 169 l 1042 0 l 868 0 l 868 169 m -10 169 l 164 169 l 164 -6 l -10 -6 l -10 169 z "},"R":{"ha":1215,"x_min":-10,"x_max":1042,"o":"m 347 1385 l 347 1047 l 685 1047 l 685 1385 l 347 1385 m 347 -6 l -10 -6 l -10 1742 l 868 1742 l 868 1568 l 1042 1568 l 1042 864 l 868 864 l 868 700 l 1042 700 l 1042 -6 l 685 -6 l 685 690 l 347 690 l 347 -6 m 868 1742 l 1042 1742 l 1042 1568 l 868 1568 l 868 1742 z "},"S":{"ha":1215,"x_min":-10,"x_max":1042,"o":"m 868 -6 l -10 -6 l -10 353 l 685 353 l 685 690 l 164 690 l 164 864 l -10 864 l -10 1568 l 164 1568 l 164 1742 l 1042 1742 l 1042 1385 l 347 1385 l 347 1047 l 868 1047 l 868 874 l 1042 874 l 1042 169 l 868 169 l 868 -6 m 0 1736 l 164 1736 l 164 1568 l 0 1568 l 0 1736 m -10 864 l 164 864 l 164 690 l -10 690 l -10 864 m 868 1047 l 1042 1047 l 1042 874 l 868 874 l 868 1047 m 868 169 l 1042 169 l 1042 0 l 868 0 l 868 169 z "},"T":{"ha":1215,"x_min":-10,"x_max":1042,"o":"m 694 -6 l 338 -6 l 338 1385 l -10 1385 l -10 1742 l 1042 1742 l 1042 1385 l 694 1385 l 694 -6 z "},"U":{"ha":1215,"x_min":-10,"x_max":1042,"o":"m 164 -6 l 164 169 l -10 169 l -10 1742 l 347 1742 l 347 353 l 685 353 l 685 1742 l 1042 1742 l 1042 169 l 868 169 l 868 -6 l 164 -6 m -10 169 l 164 169 l 164 -6 l -10 -6 l -10 169 m 868 169 l 1042 169 l 1042 0 l 868 0 l 868 169 z "},"V":{"ha":1215,"x_min":-10,"x_max":1042,"o":"m -10 -6 l -10 1742 l 347 1742 l 347 353 l 511 353 l 511 526 l 685 526 l 685 1742 l 1042 1742 l 1042 343 l 868 343 l 868 169 l 694 169 l 694 -6 l -10 -6 z "},"W":{"ha":1563,"x_min":-10,"x_max":1389,"o":"m 347 353 l 511 353 l 511 1742 l 868 1742 l 868 353 l 1032 353 l 1032 1742 l 1389 1742 l 1389 169 l 1215 169 l 1215 -6 l 164 -6 l 164 169 l -10 169 l -10 1742 l 347 1742 l 347 353 m -10 169 l 164 169 l 164 -6 l -10 -6 l -10 169 m 1215 169 l 1389 169 l 1389 0 l 1215 0 l 1215 169 z "},"X":{"ha":1215,"x_min":-10,"x_max":1042,"o":"m 347 -6 l -10 -6 l -10 700 l 164 700 l 164 1038 l -10 1038 l -10 1742 l 347 1742 l 347 1047 l 685 1047 l 685 1742 l 1042 1742 l 1042 1038 l 868 1038 l 868 700 l 1042 700 l 1042 -6 l 685 -6 l 685 690 l 347 690 l 347 -6 m 0 868 l 164 868 l 164 700 l 0 700 l 0 868 m 868 868 l 1042 868 l 1042 694 l 868 694 l 868 868 z "},"Y":{"ha":1215,"x_min":-10,"x_max":1042,"o":"m 694 -6 l 338 -6 l 338 690 l -10 690 l -10 1742 l 347 1742 l 347 1047 l 685 1047 l 685 1742 l 1042 1742 l 1042 690 l 694 690 l 694 -6 z "},"Z":{"ha":1215,"x_min":-10,"x_max":1042,"o":"m 1042 -6 l -10 -6 l -10 700 l 164 700 l 164 874 l 338 874 l 338 1047 l 511 1047 l 511 1221 l 685 1221 l 685 1385 l -10 1385 l -10 1742 l 1042 1742 l 1042 1211 l 868 1211 l 868 1038 l 694 1038 l 694 864 l 521 864 l 521 690 l 347 690 l 347 353 l 1042 353 l 1042 -6 m 347 690 l 521 690 l 521 521 l 347 521 l 347 690 m 521 864 l 694 864 l 694 694 l 521 694 l 521 864 m 694 1038 l 868 1038 l 868 868 l 694 868 l 694 1038 m 868 1211 l 1042 1211 l 1042 1042 l 868 1042 l 868 1211 z "},"[":{"ha":694,"x_min":-10,"x_max":521,"o":"m 521 -179 l 164 -179 l 164 -6 l -10 -6 l -10 1742 l 164 1742 l 164 1915 l 521 1915 l 521 1558 l 347 1558 l 347 179 l 521 179 l 521 -179 m -6 1910 l 164 1910 l 164 1742 l -6 1742 l -6 1910 m -10 -6 l 164 -6 l 164 -179 l -10 -179 l -10 -6 z "},"\\":{"ha":1215,"x_min":-10,"x_max":1042,"o":"m 685 -6 l 1042 -6 l 1042 526 l 868 526 l 868 874 l 694 874 l 694 1221 l 521 1221 l 521 1568 l 347 1568 l 347 1742 l -10 1742 l -10 1385 l 164 1385 l 164 1038 l 338 1038 l 338 690 l 511 690 l 511 343 l 685 343 l 685 -6 z "},"]":{"ha":694,"x_min":-10,"x_max":521,"o":"m -10 -179 l 347 -179 l 347 -6 l 521 -6 l 521 1742 l 347 1742 l 347 1915 l -10 1915 l -10 1558 l 164 1558 l 164 179 l -10 179 l -10 -179 m 517 1910 l 347 1910 l 347 1742 l 517 1742 l 517 1910 m 521 -6 l 347 -6 l 347 -179 l 521 -179 l 521 -6 z "},"^":{"ha":1389,"x_min":-10,"x_max":1215,"o":"m 521 1031 l -10 1031 l -10 1214 l 164 1214 l 164 1388 l 338 1388 l 338 1561 l 511 1561 l 511 1735 l 694 1735 l 694 1561 l 868 1561 l 868 1388 l 1042 1388 l 1042 1214 l 1215 1214 l 1215 1031 l 685 1031 l 685 1204 l 521 1204 l 521 1031 z "},"_":{"ha":1042,"x_min":-10,"x_max":868,"o":"m 694 -353 l -10 -353 l -10 -169 l 694 -169 l 694 -353 m -10 -353 l 694 -353 l 694 -521 l -10 -521 l -10 -353 m 694 -169 l 868 -169 l 868 -521 l 694 -521 l 694 -169 z "},"`":{"ha":694,"x_min":-10,"x_max":521,"o":"m 521 1558 l 164 1558 l 164 1732 l -10 1732 l -10 1915 l 347 1915 l 347 1742 l 521 1742 l 521 1558 z "},"a":{"ha":1042,"x_min":-10,"x_max":868,"o":"m 347 517 l 347 353 l 511 353 l 511 517 l 347 517 m -10 -6 l -10 700 l 511 700 l 511 864 l -10 864 l -10 1221 l 868 1221 l 868 -6 l -10 -6 z "},"b":{"ha":1042,"x_min":-10,"x_max":868,"o":"m 347 353 l 511 353 l 511 864 l 347 864 l 347 353 m -10 -6 l -10 1742 l 347 1742 l 347 1221 l 694 1221 l 694 1047 l 868 1047 l 868 169 l 694 169 l 694 -6 l -10 -6 m 694 1221 l 868 1221 l 868 1047 l 694 1047 l 694 1221 m 694 169 l 868 169 l 868 0 l 694 0 l 694 169 z "},"c":{"ha":1042,"x_min":-10,"x_max":868,"o":"m 164 -6 l 164 169 l -10 169 l -10 1047 l 164 1047 l 164 1221 l 694 1221 l 694 1047 l 868 1047 l 868 690 l 511 690 l 511 864 l 347 864 l 347 353 l 511 353 l 511 526 l 868 526 l 868 169 l 694 169 l 694 -6 l 164 -6 m 0 1215 l 174 1215 l 174 1042 l 0 1042 l 0 1215 m 694 1215 l 868 1215 l 868 1047 l 694 1047 l 694 1215 m 694 169 l 868 169 l 868 0 l 694 0 l 694 169 m -10 169 l 164 169 l 164 -6 l -10 -6 l -10 169 z "},"d":{"ha":1042,"x_min":-10,"x_max":868,"o":"m 347 353 l 511 353 l 511 864 l 347 864 l 347 353 m 164 -6 l 164 169 l -10 169 l -10 1047 l 164 1047 l 164 1221 l 511 1221 l 511 1742 l 868 1742 l 868 -6 l 164 -6 m 0 1215 l 164 1215 l 164 1047 l 0 1047 l 0 1215 m -10 169 l 164 169 l 164 -6 l -10 -6 l -10 169 z "},"e":{"ha":1042,"x_min":-10,"x_max":868,"o":"m 347 864 l 347 700 l 511 700 l 511 864 l 347 864 m 164 -6 l 164 169 l -10 169 l -10 1047 l 164 1047 l 164 1221 l 694 1221 l 694 1047 l 868 1047 l 868 517 l 347 517 l 347 353 l 868 353 l 868 -6 l 164 -6 m 0 1215 l 164 1215 l 164 1047 l 0 1047 l 0 1215 m 694 1221 l 868 1221 l 868 1047 l 694 1047 l 694 1221 m -10 169 l 164 169 l 164 -6 l -10 -6 l -10 169 z "},"f":{"ha":868,"x_min":-10,"x_max":694,"o":"m 347 -6 l -10 -6 l -10 1568 l 164 1568 l 164 1742 l 694 1742 l 694 1385 l 347 1385 l 347 1221 l 694 1221 l 694 864 l 347 864 l 347 -6 m 0 1736 l 164 1736 l 164 1568 l 0 1568 l 0 1736 z "},"g":{"ha":1042,"x_min":-10,"x_max":868,"o":"m 347 353 l 511 353 l 511 864 l 347 864 l 347 353 m 694 -526 l 164 -526 l 164 -169 l 511 -169 l 511 -6 l 164 -6 l 164 169 l -10 169 l -10 1047 l 164 1047 l 164 1221 l 868 1221 l 868 -353 l 694 -353 l 694 -526 m 0 1215 l 164 1215 l 164 1047 l 0 1047 l 0 1215 m 694 -353 l 868 -353 l 868 -521 l 694 -521 l 694 -353 m 0 -174 l 164 -174 l 164 -526 l 0 -526 l 0 -174 m -10 169 l 164 169 l 164 -6 l -10 -6 l -10 169 z "},"h":{"ha":1042,"x_min":-10,"x_max":868,"o":"m 347 -6 l -10 -6 l -10 1742 l 347 1742 l 347 1221 l 694 1221 l 694 1047 l 868 1047 l 868 -6 l 511 -6 l 511 864 l 347 864 l 347 -6 m 694 1221 l 868 1221 l 868 1047 l 694 1047 l 694 1221 z "},"i":{"ha":521,"x_min":-10,"x_max":347,"o":"m 347 1385 l -10 1385 l -10 1742 l 347 1742 l 347 1385 m 347 -6 l -10 -6 l -10 1221 l 347 1221 l 347 -6 z "},"j":{"ha":694,"x_min":-10,"x_max":521,"o":"m 521 1385 l 164 1385 l 164 1742 l 521 1742 l 521 1385 m 347 -526 l -10 -526 l -10 -169 l 164 -169 l 164 1221 l 521 1221 l 521 -353 l 347 -353 l 347 -526 m 347 -353 l 521 -353 l 521 -521 l 347 -521 l 347 -353 z "},"k":{"ha":1042,"x_min":-10,"x_max":868,"o":"m 868 -6 l 511 -6 l 511 517 l 347 517 l 347 -6 l -10 -6 l -10 1742 l 347 1742 l 347 874 l 511 874 l 511 1221 l 868 1221 l 868 864 l 694 864 l 694 526 l 868 526 l 868 -6 m 694 694 l 868 694 l 868 526 l 694 526 l 694 694 z "},"l":{"ha":521,"x_min":-10,"x_max":347,"o":"m 347 -6 l -10 -6 l -10 1742 l 347 1742 l 347 -6 z "},"m":{"ha":1563,"x_min":-10,"x_max":1389,"o":"m 347 -6 l -10 -6 l -10 1221 l 1215 1221 l 1215 1047 l 1389 1047 l 1389 -6 l 1032 -6 l 1032 864 l 868 864 l 868 -6 l 511 -6 l 511 864 l 347 864 l 347 -6 m 1215 1221 l 1389 1221 l 1389 1042 l 1215 1042 l 1215 1221 z "},"n":{"ha":1042,"x_min":-10,"x_max":868,"o":"m 347 -6 l -10 -6 l -10 1221 l 694 1221 l 694 1047 l 868 1047 l 868 -6 l 511 -6 l 511 864 l 347 864 l 347 -6 m 694 1221 l 868 1221 l 868 1047 l 694 1047 l 694 1221 z "},"o":{"ha":1042,"x_min":-10,"x_max":868,"o":"m 347 353 l 511 353 l 511 864 l 347 864 l 347 353 m 164 -6 l 164 169 l -10 169 l -10 1047 l 164 1047 l 164 1221 l 694 1221 l 694 1047 l 868 1047 l 868 169 l 694 169 l 694 -6 l 164 -6 m 0 1215 l 174 1215 l 174 1042 l 0 1042 l 0 1215 m 694 1221 l 868 1221 l 868 1042 l 694 1042 l 694 1221 m 694 169 l 868 169 l 868 0 l 694 0 l 694 169 m -10 169 l 164 169 l 164 -6 l -10 -6 l -10 169 z "},"p":{"ha":1042,"x_min":-10,"x_max":868,"o":"m 347 864 l 347 353 l 511 353 l 511 864 l 347 864 m 347 -526 l -10 -526 l -10 1221 l 694 1221 l 694 1047 l 868 1047 l 868 169 l 694 169 l 694 -6 l 347 -6 l 347 -526 m 694 1221 l 868 1221 l 868 1047 l 694 1047 l 694 1221 m 694 174 l 868 174 l 868 -6 l 694 -6 l 694 174 z "},"q":{"ha":1042,"x_min":-10,"x_max":868,"o":"m 347 353 l 511 353 l 511 864 l 347 864 l 347 353 m 164 -6 l 164 169 l -10 169 l -10 1047 l 164 1047 l 164 1221 l 868 1221 l 868 -526 l 511 -526 l 511 -6 l 164 -6 m 0 1215 l 164 1215 l 164 1047 l 0 1047 l 0 1215 m -10 169 l 164 169 l 164 -6 l -10 -6 l -10 169 z "},"r":{"ha":868,"x_min":-10,"x_max":694,"o":"m 347 -6 l -10 -6 l -10 1221 l 694 1221 l 694 864 l 347 864 l 347 -6 z "},"s":{"ha":1042,"x_min":-10,"x_max":868,"o":"m 694 -6 l -10 -6 l -10 353 l 511 353 l 511 517 l 164 517 l 164 690 l -10 690 l -10 1047 l 164 1047 l 164 1221 l 868 1221 l 868 864 l 347 864 l 347 700 l 694 700 l 694 526 l 868 526 l 868 169 l 694 169 l 694 -6 m 0 1215 l 164 1215 l 164 1047 l 0 1047 l 0 1215 m 0 694 l 164 694 l 164 517 l 0 517 l 0 694 m 694 700 l 868 700 l 868 526 l 694 526 l 694 700 m 694 169 l 868 169 l 868 0 l 694 0 l 694 169 z "},"t":{"ha":868,"x_min":-10,"x_max":694,"o":"m 164 -6 l 164 169 l -10 169 l -10 1568 l 347 1568 l 347 1221 l 694 1221 l 694 864 l 347 864 l 347 353 l 694 353 l 694 -6 l 164 -6 m -10 169 l 164 169 l 164 -6 l -10 -6 l -10 169 z "},"u":{"ha":1042,"x_min":-10,"x_max":868,"o":"m 164 -6 l 164 169 l -10 169 l -10 1221 l 347 1221 l 347 353 l 511 353 l 511 1221 l 868 1221 l 868 169 l 694 169 l 694 -6 l 164 -6 m -10 169 l 164 169 l 164 -6 l -10 -6 l -10 169 m 694 169 l 868 169 l 868 0 l 694 0 l 694 169 z "},"v":{"ha":1042,"x_min":-10,"x_max":868,"o":"m -10 -6 l -10 1221 l 347 1221 l 347 353 l 511 353 l 511 1221 l 868 1221 l 868 343 l 694 343 l 694 169 l 521 169 l 521 -6 l -10 -6 z "},"w":{"ha":1563,"x_min":-10,"x_max":1389,"o":"m 347 353 l 511 353 l 511 1221 l 868 1221 l 868 353 l 1032 353 l 1032 1221 l 1389 1221 l 1389 169 l 1215 169 l 1215 -6 l 164 -6 l 164 169 l -10 169 l -10 1221 l 347 1221 l 347 353 m -10 169 l 164 169 l 164 -6 l -10 -6 l -10 169 m 1215 169 l 1389 169 l 1389 0 l 1215 0 l 1215 169 z "},"x":{"ha":1042,"x_min":-10,"x_max":868,"o":"m 347 -6 l -10 -6 l -10 526 l 164 526 l 164 864 l -10 864 l -10 1221 l 347 1221 l 347 874 l 511 874 l 511 1221 l 868 1221 l 868 864 l 694 864 l 694 526 l 868 526 l 868 -6 l 511 -6 l 511 517 l 347 517 l 347 -6 m 694 864 l 868 864 l 868 694 l 694 694 l 694 864 m -10 864 l 174 864 l 174 694 l -10 694 l -10 864 m 347 517 l 521 517 l 521 347 l 347 347 l 347 517 z "},"y":{"ha":1042,"x_min":-10,"x_max":868,"o":"m 694 -526 l 164 -526 l 164 -169 l 511 -169 l 511 -6 l 164 -6 l 164 169 l -10 169 l -10 1221 l 347 1221 l 347 353 l 511 353 l 511 1221 l 868 1221 l 868 -353 l 694 -353 l 694 -526 m 0 -174 l 164 -174 l 164 -526 l 0 -526 l 0 -174 m -10 169 l 164 169 l 164 -6 l -10 -6 l -10 169 m 694 -353 l 868 -353 l 868 -521 l 694 -521 l 694 -353 z "},"z":{"ha":1042,"x_min":-10,"x_max":868,"o":"m -10 -6 l -10 700 l 511 700 l 511 864 l -10 864 l -10 1221 l 868 1221 l 868 517 l 347 517 l 347 353 l 868 353 l 868 -6 l -10 -6 z "},"{":{"ha":868,"x_min":-10,"x_max":694,"o":"m 694 -179 l 164 -179 l 164 690 l -10 690 l -10 1047 l 164 1047 l 164 1915 l 694 1915 l 694 1558 l 521 1558 l 521 179 l 694 179 l 694 -179 z "},"|":{"ha":521,"x_min":-10,"x_max":347,"o":"m 347 -179 l -10 -179 l -10 1915 l 347 1915 l 347 -179 z "},"}":{"ha":868,"x_min":-10,"x_max":694,"o":"m -10 -179 l 521 -179 l 521 690 l 694 690 l 694 1047 l 521 1047 l 521 1915 l -10 1915 l -10 1558 l 164 1558 l 164 179 l -10 179 l -10 -179 z "},"~":{"ha":1563,"x_min":-10,"x_max":1389,"o":"m 347 517 l -10 517 l -10 1221 l 868 1221 l 868 874 l 1032 874 l 1032 1221 l 1389 1221 l 1389 517 l 511 517 l 511 864 l 347 864 l 347 517 z "},"€":{"ha":1389,"x_min":-10,"x_max":1215,"o":"m 164 -6 l 164 690 l -10 690 l -10 1047 l 164 1047 l 164 1742 l 1215 1742 l 1215 1211 l 858 1211 l 858 1385 l 521 1385 l 521 1047 l 868 1047 l 868 690 l 521 690 l 521 353 l 858 353 l 858 526 l 1215 526 l 1215 -6 l 164 -6 z "},"¡":{"ha":521,"x_min":-10,"x_max":347,"o":"m 347 693 l -10 693 l -10 -533 l 347 -533 l 347 693 m 347 1214 l -10 1214 l -10 857 l 347 857 l 347 1214 z "},"£":{"ha":1389,"x_min":-10,"x_max":1215,"o":"m -10 -6 l -10 353 l 164 353 l 164 690 l -10 690 l -10 1047 l 164 1047 l 164 1742 l 1042 1742 l 1042 1211 l 685 1211 l 685 1385 l 521 1385 l 521 1047 l 868 1047 l 868 690 l 521 690 l 521 353 l 1215 353 l 1215 -6 l -10 -6 z "},"¥":{"ha":1215,"x_min":-10,"x_max":1042,"o":"m 338 517 l -10 517 l -10 874 l 338 874 l 338 1038 l -10 1038 l -10 1742 l 347 1742 l 347 1394 l 685 1394 l 685 1742 l 1042 1742 l 1042 1038 l 694 1038 l 694 874 l 1042 874 l 1042 517 l 694 517 l 694 -6 l 338 -6 l 338 517 z "},"©":{"ha":2083,"x_min":-10,"x_max":1910,"o":"m 347 172 l 1553 172 l 1553 1551 l 347 1551 l 347 172 m 1910 -186 l -10 -186 l -10 1908 l 1910 1908 l 1910 -186 m 511 336 l 511 1388 l 1389 1388 l 1389 1031 l 868 1031 l 868 693 l 1389 693 l 1389 336 l 511 336 z "},"®":{"ha":2083,"x_min":-10,"x_max":1910,"o":"m 347 172 l 1553 172 l 1553 1551 l 347 1551 l 347 172 m -10 -186 l -10 1908 l 1910 1908 l 1910 -186 l -10 -186 m 868 1031 l 868 867 l 1032 867 l 1032 1031 l 868 1031 m 868 336 l 511 336 l 511 1388 l 1389 1388 l 1389 857 l 1215 857 l 1215 693 l 1389 693 l 1389 336 l 1032 336 l 1032 683 l 868 683 l 868 336 z "},"º":{"ha":1042,"x_min":-10,"x_max":868,"o":"m 347 1221 l 511 1221 l 511 1558 l 347 1558 l 347 1221 m -10 1742 l 868 1742 l 868 1038 l -10 1038 l -10 1742 z "},"¿":{"ha":1215,"x_min":-10,"x_max":1042,"o":"m 338 693 l 694 693 l 694 163 l 347 163 l 347 -176 l 685 -176 l 685 -3 l 1042 -3 l 1042 -533 l -10 -533 l -10 519 l 338 519 l 338 693 m 338 1214 l 694 1214 l 694 857 l 338 857 l 338 1214 z "},"À":{"ha":1215,"x_min":-10,"x_max":1042,"o":"m 347 1385 l 347 1047 l 685 1047 l 685 1385 l 347 1385 m 347 -6 l -10 -6 l -10 1742 l 1042 1742 l 1042 -6 l 685 -6 l 685 690 l 347 690 l 347 -6 m 343 2083 l 690 2083 l 690 1910 l 343 1910 l 343 2083 m 169 2257 l 517 2257 l 517 2083 l 169 2083 l 169 2257 z "},"Á":{"ha":1215,"x_min":-10,"x_max":1042,"o":"m 347 1385 l 347 1047 l 685 1047 l 685 1385 l 347 1385 m 347 -6 l -10 -6 l -10 1742 l 1042 1742 l 1042 -6 l 685 -6 l 685 690 l 347 690 l 347 -6 m 343 2083 l 690 2083 l 690 1910 l 343 1910 l 343 2083 m 517 2257 l 864 2257 l 864 2083 l 517 2083 l 517 2257 z "},"Â":{"ha":1215,"x_min":-10,"x_max":1042,"o":"m 347 1385 l 347 1047 l 685 1047 l 685 1385 l 347 1385 m 347 -6 l -10 -6 l -10 1742 l 1042 1742 l 1042 -6 l 685 -6 l 685 690 l 347 690 l 347 -6 m 169 2083 l 517 2083 l 517 1910 l 169 1910 l 169 2083 m 343 2257 l 864 2257 l 864 2083 l 343 2083 l 343 2257 m 690 2083 l 1038 2083 l 1038 1910 l 690 1910 l 690 2083 z "},"Ã":{"ha":1215,"x_min":-10,"x_max":1042,"o":"m 347 1385 l 347 1047 l 685 1047 l 685 1385 l 347 1385 m 347 -6 l -10 -6 l -10 1742 l 1042 1742 l 1042 -6 l 685 -6 l 685 690 l 347 690 l 347 -6 m 169 2083 l 343 2083 l 343 1910 l 169 1910 l 169 2083 m 343 2257 l 690 2257 l 690 2083 l 343 2083 l 343 2257 m 517 2083 l 864 2083 l 864 1910 l 517 1910 l 517 2083 m 864 2257 l 1038 2257 l 1038 2083 l 864 2083 l 864 2257 z "},"Ä":{"ha":1215,"x_min":-10,"x_max":1042,"o":"m 347 1385 l 347 1047 l 685 1047 l 685 1385 l 347 1385 m 347 -6 l -10 -6 l -10 1742 l 1042 1742 l 1042 -6 l 685 -6 l 685 690 l 347 690 l 347 -6 m 169 2257 l 343 2257 l 343 1910 l 169 1910 l 169 2257 m 690 2257 l 864 2257 l 864 1910 l 690 1910 l 690 2257 z "},"Å":{"ha":1215,"x_min":-10,"x_max":1042,"o":"m 521 2089 l 685 2089 l 685 2253 l 521 2253 l 521 2089 m 868 1906 l 338 1906 l 338 2436 l 868 2436 l 868 1906 m 347 1385 l 347 1047 l 685 1047 l 685 1385 l 347 1385 m 347 -6 l -10 -6 l -10 1742 l 1042 1742 l 1042 -6 l 685 -6 l 685 690 l 347 690 l 347 -6 z "},"Æ":{"ha":1736,"x_min":-10,"x_max":1563,"o":"m 347 1385 l 347 1047 l 685 1047 l 685 1385 l 347 1385 m 347 -6 l -10 -6 l -10 1742 l 1563 1742 l 1563 1385 l 1042 1385 l 1042 1047 l 1563 1047 l 1563 690 l 1042 690 l 1042 353 l 1563 353 l 1563 -6 l 685 -6 l 685 690 l 347 690 l 347 -6 z "},"Ç":{"ha":1215,"x_min":-10,"x_max":1042,"o":"m 164 -6 l 164 169 l -10 169 l -10 1568 l 164 1568 l 164 1742 l 868 1742 l 868 1568 l 1042 1568 l 1042 1038 l 685 1038 l 685 1385 l 347 1385 l 347 353 l 685 353 l 685 700 l 1042 700 l 1042 169 l 868 169 l 868 -6 l 164 -6 m 0 1736 l 164 1736 l 164 1568 l 0 1568 l 0 1736 m -10 169 l 164 169 l 164 -6 l -10 -6 l -10 169 m 868 174 l 1042 174 l 1042 0 l 868 0 l 868 174 m 868 1736 l 1042 1736 l 1042 1568 l 868 1568 l 868 1736 m 347 -6 l 694 -6 l 694 -174 l 347 -174 l 347 -6 m 174 -174 l 521 -174 l 521 -347 l 174 -347 l 174 -174 z "},"È":{"ha":1042,"x_min":-10,"x_max":868,"o":"m 868 -6 l -10 -6 l -10 1742 l 868 1742 l 868 1385 l 347 1385 l 347 1047 l 868 1047 l 868 690 l 347 690 l 347 353 l 868 353 l 868 -6 m 174 2083 l 521 2083 l 521 1910 l 174 1910 l 174 2083 m 0 2257 l 347 2257 l 347 2083 l 0 2083 l 0 2257 z "},"É":{"ha":1042,"x_min":-10,"x_max":868,"o":"m 868 -6 l -10 -6 l -10 1742 l 868 1742 l 868 1385 l 347 1385 l 347 1047 l 868 1047 l 868 690 l 347 690 l 347 353 l 868 353 l 868 -6 m 347 2083 l 694 2083 l 694 1910 l 347 1910 l 347 2083 m 521 2257 l 868 2257 l 868 2083 l 521 2083 l 521 2257 z "},"Ê":{"ha":1042,"x_min":-10,"x_max":868,"o":"m 868 -6 l -10 -6 l -10 1742 l 868 1742 l 868 1385 l 347 1385 l 347 1047 l 868 1047 l 868 690 l 347 690 l 347 353 l 868 353 l 868 -6 m 0 2083 l 347 2083 l 347 1910 l 0 1910 l 0 2083 m 521 2083 l 868 2083 l 868 1910 l 521 1910 l 521 2083 m 174 2257 l 694 2257 l 694 2083 l 174 2083 l 174 2257 z "},"Ë":{"ha":1042,"x_min":-10,"x_max":868,"o":"m 868 -6 l -10 -6 l -10 1742 l 868 1742 l 868 1385 l 347 1385 l 347 1047 l 868 1047 l 868 690 l 347 690 l 347 353 l 868 353 l 868 -6 m 174 2257 l 347 2257 l 347 1910 l 174 1910 l 174 2257 m 521 2257 l 694 2257 l 694 1910 l 521 1910 l 521 2257 z "},"Ì":{"ha":521,"x_min":-183,"x_max":347,"o":"m 347 1906 l -10 1906 l -10 2079 l -183 2079 l -183 2263 l 174 2263 l 174 2089 l 347 2089 l 347 1906 m 347 -6 l -10 -6 l -10 1742 l 347 1742 l 347 -6 z "},"Í":{"ha":521,"x_min":-10,"x_max":521,"o":"m 347 1906 l -10 1906 l -10 2089 l 164 2089 l 164 2263 l 521 2263 l 521 2079 l 347 2079 l 347 1906 m 347 -6 l -10 -6 l -10 1742 l 347 1742 l 347 -6 z "},"Î":{"ha":521,"x_min":-183,"x_max":694,"o":"m -183 1906 l -183 2089 l -10 2089 l -10 2263 l 521 2263 l 521 2089 l 694 2089 l 694 1906 l 338 1906 l 338 2079 l 174 2079 l 174 1906 l -183 1906 m 347 -6 l -10 -6 l -10 1742 l 347 1742 l 347 -6 z "},"Ï":{"ha":521,"x_min":-183,"x_max":521,"o":"m 521 1906 l 338 1906 l 338 2263 l 521 2263 l 521 1906 m 0 1906 l -183 1906 l -183 2263 l 0 2263 l 0 1906 m 347 -6 l -10 -6 l -10 1742 l 347 1742 l 347 -6 z "},"Ñ":{"ha":1215,"x_min":-10,"x_max":1042,"o":"m 347 -6 l -10 -6 l -10 1742 l 1042 1742 l 1042 -6 l 685 -6 l 685 1385 l 347 1385 l 347 -6 m 169 2083 l 343 2083 l 343 1910 l 169 1910 l 169 2083 m 343 2257 l 690 2257 l 690 2083 l 343 2083 l 343 2257 m 517 2083 l 864 2083 l 864 1910 l 517 1910 l 517 2083 m 864 2257 l 1038 2257 l 1038 2083 l 864 2083 l 864 2257 z "},"Ò":{"ha":1215,"x_min":-10,"x_max":1042,"o":"m 347 353 l 685 353 l 685 1385 l 347 1385 l 347 353 m 164 -6 l 164 169 l -10 169 l -10 1568 l 164 1568 l 164 1742 l 868 1742 l 868 1568 l 1042 1568 l 1042 169 l 868 169 l 868 -6 l 164 -6 m 0 1736 l 164 1736 l 164 1568 l 0 1568 l 0 1736 m 868 1742 l 1042 1742 l 1042 1568 l 868 1568 l 868 1742 m 868 169 l 1042 169 l 1042 0 l 868 0 l 868 169 m -10 169 l 164 169 l 164 -6 l -10 -6 l -10 169 m 347 2083 l 694 2083 l 694 1910 l 347 1910 l 347 2083 m 174 2257 l 521 2257 l 521 2083 l 174 2083 l 174 2257 z "},"Ó":{"ha":1215,"x_min":-10,"x_max":1042,"o":"m 347 353 l 685 353 l 685 1385 l 347 1385 l 347 353 m 164 -6 l 164 169 l -10 169 l -10 1568 l 164 1568 l 164 1742 l 868 1742 l 868 1568 l 1042 1568 l 1042 169 l 868 169 l 868 -6 l 164 -6 m 0 1736 l 164 1736 l 164 1568 l 0 1568 l 0 1736 m 868 1742 l 1042 1742 l 1042 1568 l 868 1568 l 868 1742 m 868 169 l 1042 169 l 1042 0 l 868 0 l 868 169 m -10 169 l 164 169 l 164 -6 l -10 -6 l -10 169 m 347 2083 l 694 2083 l 694 1910 l 347 1910 l 347 2083 m 521 2257 l 868 2257 l 868 2083 l 521 2083 l 521 2257 z "},"Ô":{"ha":1215,"x_min":-10,"x_max":1042,"o":"m 347 353 l 685 353 l 685 1385 l 347 1385 l 347 353 m 164 -6 l 164 169 l -10 169 l -10 1568 l 164 1568 l 164 1742 l 868 1742 l 868 1568 l 1042 1568 l 1042 169 l 868 169 l 868 -6 l 164 -6 m 0 1736 l 164 1736 l 164 1568 l 0 1568 l 0 1736 m 868 1742 l 1042 1742 l 1042 1568 l 868 1568 l 868 1742 m 868 169 l 1042 169 l 1042 0 l 868 0 l 868 169 m -10 169 l 164 169 l 164 -6 l -10 -6 l -10 169 m 174 2083 l 521 2083 l 521 1910 l 174 1910 l 174 2083 m 347 2257 l 868 2257 l 868 2083 l 347 2083 l 347 2257 m 694 2083 l 1042 2083 l 1042 1910 l 694 1910 l 694 2083 z "},"Õ":{"ha":1215,"x_min":-10,"x_max":1042,"o":"m 347 353 l 685 353 l 685 1385 l 347 1385 l 347 353 m 164 -6 l 164 169 l -10 169 l -10 1568 l 164 1568 l 164 1742 l 868 1742 l 868 1568 l 1042 1568 l 1042 169 l 868 169 l 868 -6 l 164 -6 m 0 1736 l 164 1736 l 164 1568 l 0 1568 l 0 1736 m 868 1742 l 1042 1742 l 1042 1568 l 868 1568 l 868 1742 m 868 169 l 1042 169 l 1042 0 l 868 0 l 868 169 m -10 169 l 164 169 l 164 -6 l -10 -6 l -10 169 m 174 2083 l 347 2083 l 347 1910 l 174 1910 l 174 2083 m 347 2257 l 694 2257 l 694 2083 l 347 2083 l 347 2257 m 521 2083 l 868 2083 l 868 1910 l 521 1910 l 521 2083 m 868 2257 l 1042 2257 l 1042 2083 l 868 2083 l 868 2257 z "},"Ö":{"ha":1215,"x_min":-10,"x_max":1042,"o":"m 347 353 l 685 353 l 685 1385 l 347 1385 l 347 353 m 164 -6 l 164 169 l -10 169 l -10 1568 l 164 1568 l 164 1742 l 868 1742 l 868 1568 l 1042 1568 l 1042 169 l 868 169 l 868 -6 l 164 -6 m 0 1736 l 164 1736 l 164 1568 l 0 1568 l 0 1736 m 868 1742 l 1042 1742 l 1042 1568 l 868 1568 l 868 1742 m 868 169 l 1042 169 l 1042 0 l 868 0 l 868 169 m -10 169 l 164 169 l 164 -6 l -10 -6 l -10 169 m 174 2257 l 347 2257 l 347 1910 l 174 1910 l 174 2257 m 694 2257 l 868 2257 l 868 1910 l 694 1910 l 694 2257 z "},"Ø":{"ha":1215,"x_min":-10,"x_max":1042,"o":"m -10 -6 l -10 1568 l 0 1568 l 0 1736 l 164 1736 l 164 1742 l 1042 1742 l 1042 0 l 868 0 l 868 -6 l -10 -6 m 521 868 l 521 694 l 347 694 l 347 353 l 685 353 l 685 868 l 521 868 m 347 1042 l 521 1042 l 521 1215 l 685 1215 l 685 1385 l 347 1385 l 347 1042 z "},"Ù":{"ha":1215,"x_min":-10,"x_max":1042,"o":"m 164 -6 l 164 169 l -10 169 l -10 1742 l 347 1742 l 347 353 l 685 353 l 685 1742 l 1042 1742 l 1042 169 l 868 169 l 868 -6 l 164 -6 m -10 169 l 164 169 l 164 -6 l -10 -6 l -10 169 m 868 169 l 1042 169 l 1042 0 l 868 0 l 868 169 m 347 2083 l 694 2083 l 694 1910 l 347 1910 l 347 2083 m 174 2257 l 521 2257 l 521 2083 l 174 2083 l 174 2257 z "},"Ú":{"ha":1215,"x_min":-10,"x_max":1042,"o":"m 164 -6 l 164 169 l -10 169 l -10 1742 l 347 1742 l 347 353 l 685 353 l 685 1742 l 1042 1742 l 1042 169 l 868 169 l 868 -6 l 164 -6 m -10 169 l 164 169 l 164 -6 l -10 -6 l -10 169 m 868 169 l 1042 169 l 1042 0 l 868 0 l 868 169 m 347 2083 l 694 2083 l 694 1910 l 347 1910 l 347 2083 m 521 2257 l 868 2257 l 868 2083 l 521 2083 l 521 2257 z "},"Û":{"ha":1215,"x_min":-10,"x_max":1042,"o":"m 164 -6 l 164 169 l -10 169 l -10 1742 l 347 1742 l 347 353 l 685 353 l 685 1742 l 1042 1742 l 1042 169 l 868 169 l 868 -6 l 164 -6 m -10 169 l 164 169 l 164 -6 l -10 -6 l -10 169 m 868 169 l 1042 169 l 1042 0 l 868 0 l 868 169 m 174 2083 l 521 2083 l 521 1910 l 174 1910 l 174 2083 m 347 2257 l 868 2257 l 868 2083 l 347 2083 l 347 2257 m 694 2083 l 1042 2083 l 1042 1910 l 694 1910 l 694 2083 z "},"Ü":{"ha":1215,"x_min":-10,"x_max":1042,"o":"m 164 -6 l 164 169 l -10 169 l -10 1742 l 347 1742 l 347 353 l 685 353 l 685 1742 l 1042 1742 l 1042 169 l 868 169 l 868 -6 l 164 -6 m -10 169 l 164 169 l 164 -6 l -10 -6 l -10 169 m 868 169 l 1042 169 l 1042 0 l 868 0 l 868 169 m 174 2257 l 347 2257 l 347 1910 l 174 1910 l 174 2257 m 694 2257 l 868 2257 l 868 1910 l 694 1910 l 694 2257 z "},"Ý":{"ha":1215,"x_min":-10,"x_max":1042,"o":"m 694 -6 l 338 -6 l 338 690 l -10 690 l -10 1742 l 347 1742 l 347 1047 l 685 1047 l 685 1742 l 1042 1742 l 1042 690 l 694 690 l 694 -6 m 343 2083 l 690 2083 l 690 1910 l 343 1910 l 343 2083 m 517 2257 l 864 2257 l 864 2083 l 517 2083 l 517 2257 z "},"ß":{"ha":1215,"x_min":-10,"x_max":1042,"o":"m 347 1385 l 347 1221 l 511 1221 l 511 1385 l 347 1385 m 511 -6 l 511 353 l 685 353 l 685 864 l 347 864 l 347 -6 l -10 -6 l -10 1742 l 868 1742 l 868 1211 l 694 1211 l 694 1047 l 1042 1047 l 1042 -6 l 511 -6 z "},"à":{"ha":1042,"x_min":-10,"x_max":868,"o":"m 347 517 l 347 353 l 511 353 l 511 517 l 347 517 m -10 -6 l -10 700 l 511 700 l 511 864 l -10 864 l -10 1221 l 868 1221 l 868 -6 l -10 -6 m 174 1563 l 521 1563 l 521 1389 l 174 1389 l 174 1563 m 0 1736 l 347 1736 l 347 1563 l 0 1563 l 0 1736 z "},"á":{"ha":1042,"x_min":-10,"x_max":868,"o":"m 347 517 l 347 353 l 511 353 l 511 517 l 347 517 m -10 -6 l -10 700 l 511 700 l 511 864 l -10 864 l -10 1221 l 868 1221 l 868 -6 l -10 -6 m 174 1563 l 521 1563 l 521 1389 l 174 1389 l 174 1563 m 347 1736 l 694 1736 l 694 1563 l 347 1563 l 347 1736 z "},"â":{"ha":1042,"x_min":-10,"x_max":868,"o":"m 347 517 l 347 353 l 511 353 l 511 517 l 347 517 m -10 -6 l -10 700 l 511 700 l 511 864 l -10 864 l -10 1221 l 868 1221 l 868 -6 l -10 -6 m 0 1563 l 347 1563 l 347 1389 l 0 1389 l 0 1563 m 174 1736 l 694 1736 l 694 1563 l 174 1563 l 174 1736 m 521 1563 l 868 1563 l 868 1389 l 521 1389 l 521 1563 z "},"ã":{"ha":1042,"x_min":-10,"x_max":868,"o":"m 347 517 l 347 353 l 511 353 l 511 517 l 347 517 m -10 -6 l -10 700 l 511 700 l 511 864 l -10 864 l -10 1221 l 868 1221 l 868 -6 l -10 -6 m 0 1563 l 174 1563 l 174 1389 l 0 1389 l 0 1563 m 174 1736 l 521 1736 l 521 1563 l 174 1563 l 174 1736 m 347 1563 l 694 1563 l 694 1389 l 347 1389 l 347 1563 m 694 1736 l 868 1736 l 868 1563 l 694 1563 l 694 1736 z "},"ä":{"ha":1042,"x_min":-10,"x_max":868,"o":"m 347 517 l 347 353 l 511 353 l 511 517 l 347 517 m -10 -6 l -10 700 l 511 700 l 511 864 l -10 864 l -10 1221 l 868 1221 l 868 -6 l -10 -6 m 174 1736 l 347 1736 l 347 1389 l 174 1389 l 174 1736 m 521 1736 l 694 1736 l 694 1389 l 521 1389 l 521 1736 z "},"å":{"ha":1042,"x_min":-10,"x_max":868,"o":"m 347 1568 l 511 1568 l 511 1732 l 347 1732 l 347 1568 m 694 1385 l 164 1385 l 164 1915 l 694 1915 l 694 1385 m 347 353 l 511 353 l 511 517 l 347 517 l 347 353 m -10 -6 l -10 700 l 511 700 l 511 864 l -10 864 l -10 1221 l 868 1221 l 868 -6 l -10 -6 z "},"æ":{"ha":1563,"x_min":-10,"x_max":1389,"o":"m 347 517 l 347 353 l 511 353 l 511 517 l 347 517 m 868 694 l 1042 694 l 1042 868 l 868 868 l 868 694 m 868 347 l 1389 347 l 1389 0 l 868 0 l 868 -6 l -10 -6 l -10 700 l 511 700 l 511 864 l -10 864 l -10 1221 l 1389 1221 l 1389 521 l 868 521 l 868 347 z "},"ç":{"ha":1042,"x_min":-10,"x_max":868,"o":"m 164 -6 l 164 169 l -10 169 l -10 1047 l 164 1047 l 164 1221 l 694 1221 l 694 1047 l 868 1047 l 868 690 l 511 690 l 511 864 l 347 864 l 347 353 l 511 353 l 511 526 l 868 526 l 868 169 l 694 169 l 694 -6 l 164 -6 m 0 1215 l 174 1215 l 174 1042 l 0 1042 l 0 1215 m 694 1215 l 868 1215 l 868 1047 l 694 1047 l 694 1215 m 694 169 l 868 169 l 868 0 l 694 0 l 694 169 m -10 169 l 164 169 l 164 -6 l -10 -6 l -10 169 z "},"è":{"ha":1042,"x_min":-10,"x_max":868,"o":"m 347 864 l 347 700 l 511 700 l 511 864 l 347 864 m 164 -6 l 164 169 l -10 169 l -10 1047 l 164 1047 l 164 1221 l 694 1221 l 694 1047 l 868 1047 l 868 517 l 347 517 l 347 353 l 868 353 l 868 -6 l 164 -6 m 0 1215 l 164 1215 l 164 1047 l 0 1047 l 0 1215 m 694 1221 l 868 1221 l 868 1047 l 694 1047 l 694 1221 m -10 169 l 164 169 l 164 -6 l -10 -6 l -10 169 m 347 1563 l 694 1563 l 694 1389 l 347 1389 l 347 1563 m 174 1736 l 521 1736 l 521 1563 l 174 1563 l 174 1736 z "},"é":{"ha":1042,"x_min":-10,"x_max":868,"o":"m 347 864 l 347 700 l 511 700 l 511 864 l 347 864 m 164 -6 l 164 169 l -10 169 l -10 1047 l 164 1047 l 164 1221 l 694 1221 l 694 1047 l 868 1047 l 868 517 l 347 517 l 347 353 l 868 353 l 868 -6 l 164 -6 m 0 1215 l 164 1215 l 164 1047 l 0 1047 l 0 1215 m 694 1221 l 868 1221 l 868 1047 l 694 1047 l 694 1221 m -10 169 l 164 169 l 164 -6 l -10 -6 l -10 169 m 174 1563 l 521 1563 l 521 1389 l 174 1389 l 174 1563 m 347 1736 l 694 1736 l 694 1563 l 347 1563 l 347 1736 z "},"ê":{"ha":1042,"x_min":-10,"x_max":868,"o":"m 347 864 l 347 700 l 511 700 l 511 864 l 347 864 m 164 -6 l 164 169 l -10 169 l -10 1047 l 164 1047 l 164 1221 l 694 1221 l 694 1047 l 868 1047 l 868 517 l 347 517 l 347 353 l 868 353 l 868 -6 l 164 -6 m 0 1215 l 164 1215 l 164 1047 l 0 1047 l 0 1215 m 694 1221 l 868 1221 l 868 1047 l 694 1047 l 694 1221 m -10 169 l 164 169 l 164 -6 l -10 -6 l -10 169 m 0 1563 l 347 1563 l 347 1389 l 0 1389 l 0 1563 m 174 1736 l 694 1736 l 694 1563 l 174 1563 l 174 1736 m 521 1563 l 868 1563 l 868 1389 l 521 1389 l 521 1563 z "},"ë":{"ha":1042,"x_min":-10,"x_max":868,"o":"m 347 864 l 347 700 l 511 700 l 511 864 l 347 864 m 164 -6 l 164 169 l -10 169 l -10 1047 l 164 1047 l 164 1221 l 694 1221 l 694 1047 l 868 1047 l 868 517 l 347 517 l 347 353 l 868 353 l 868 -6 l 164 -6 m 0 1215 l 164 1215 l 164 1047 l 0 1047 l 0 1215 m 694 1221 l 868 1221 l 868 1047 l 694 1047 l 694 1221 m -10 169 l 164 169 l 164 -6 l -10 -6 l -10 169 m 174 1736 l 347 1736 l 347 1389 l 174 1389 l 174 1736 m 521 1736 l 694 1736 l 694 1389 l 521 1389 l 521 1736 z "},"ì":{"ha":694,"x_min":-10,"x_max":521,"o":"m 521 1385 l 164 1385 l 164 1558 l -10 1558 l -10 1742 l 347 1742 l 347 1568 l 521 1568 l 521 1385 m 521 -6 l 164 -6 l 164 1221 l 521 1221 l 521 -6 z "},"í":{"ha":694,"x_min":-10,"x_max":521,"o":"m 347 1385 l -10 1385 l -10 1568 l 164 1568 l 164 1742 l 521 1742 l 521 1558 l 347 1558 l 347 1385 m 347 -6 l -10 -6 l -10 1221 l 347 1221 l 347 -6 z "},"î":{"ha":868,"x_min":-10,"x_max":868,"o":"m 347 1385 l -10 1385 l -10 1568 l 164 1568 l 164 1742 l 694 1742 l 694 1568 l 868 1568 l 868 1385 l 511 1385 l 511 1558 l 347 1558 l 347 1385 m 521 -6 l 164 -6 l 164 1221 l 521 1221 l 521 -6 z "},"ï":{"ha":868,"x_min":-10,"x_max":694,"o":"m 694 1385 l 511 1385 l 511 1742 l 694 1742 l 694 1385 m 174 1385 l -10 1385 l -10 1742 l 174 1742 l 174 1385 m 521 -6 l 164 -6 l 164 1221 l 521 1221 l 521 -6 z "},"ñ":{"ha":1042,"x_min":-10,"x_max":868,"o":"m 347 -6 l -10 -6 l -10 1221 l 694 1221 l 694 1047 l 868 1047 l 868 -6 l 511 -6 l 511 864 l 347 864 l 347 -6 m 694 1221 l 868 1221 l 868 1047 l 694 1047 l 694 1221 m 0 1563 l 174 1563 l 174 1389 l 0 1389 l 0 1563 m 174 1736 l 521 1736 l 521 1563 l 174 1563 l 174 1736 m 347 1563 l 694 1563 l 694 1389 l 347 1389 l 347 1563 m 694 1736 l 868 1736 l 868 1563 l 694 1563 l 694 1736 z "},"ò":{"ha":1042,"x_min":-10,"x_max":868,"o":"m 347 353 l 511 353 l 511 864 l 347 864 l 347 353 m 164 -6 l 164 169 l -10 169 l -10 1047 l 164 1047 l 164 1221 l 694 1221 l 694 1047 l 868 1047 l 868 169 l 694 169 l 694 -6 l 164 -6 m 0 1215 l 174 1215 l 174 1042 l 0 1042 l 0 1215 m 694 1221 l 868 1221 l 868 1042 l 694 1042 l 694 1221 m 694 169 l 868 169 l 868 0 l 694 0 l 694 169 m -10 169 l 164 169 l 164 -6 l -10 -6 l -10 169 m 174 1563 l 521 1563 l 521 1389 l 174 1389 l 174 1563 m 0 1736 l 347 1736 l 347 1563 l 0 1563 l 0 1736 z "},"ó":{"ha":1042,"x_min":-10,"x_max":868,"o":"m 347 353 l 511 353 l 511 864 l 347 864 l 347 353 m 164 -6 l 164 169 l -10 169 l -10 1047 l 164 1047 l 164 1221 l 694 1221 l 694 1047 l 868 1047 l 868 169 l 694 169 l 694 -6 l 164 -6 m 0 1215 l 174 1215 l 174 1042 l 0 1042 l 0 1215 m 694 1221 l 868 1221 l 868 1042 l 694 1042 l 694 1221 m 694 169 l 868 169 l 868 0 l 694 0 l 694 169 m -10 169 l 164 169 l 164 -6 l -10 -6 l -10 169 m 347 1563 l 694 1563 l 694 1389 l 347 1389 l 347 1563 m 521 1736 l 868 1736 l 868 1563 l 521 1563 l 521 1736 z "},"ô":{"ha":1042,"x_min":-10,"x_max":868,"o":"m 347 353 l 511 353 l 511 864 l 347 864 l 347 353 m 164 -6 l 164 169 l -10 169 l -10 1047 l 164 1047 l 164 1221 l 694 1221 l 694 1047 l 868 1047 l 868 169 l 694 169 l 694 -6 l 164 -6 m 0 1215 l 174 1215 l 174 1042 l 0 1042 l 0 1215 m 694 1221 l 868 1221 l 868 1042 l 694 1042 l 694 1221 m 694 169 l 868 169 l 868 0 l 694 0 l 694 169 m -10 169 l 164 169 l 164 -6 l -10 -6 l -10 169 m 0 1563 l 174 1563 l 174 1389 l 0 1389 l 0 1563 m 174 1563 l 347 1563 l 347 1389 l 174 1389 l 174 1563 m 521 1563 l 694 1563 l 694 1389 l 521 1389 l 521 1563 m 694 1563 l 868 1563 l 868 1389 l 694 1389 l 694 1563 m 174 1736 l 694 1736 l 694 1563 l 174 1563 l 174 1736 z "},"õ":{"ha":1042,"x_min":-10,"x_max":868,"o":"m 347 353 l 511 353 l 511 864 l 347 864 l 347 353 m 164 -6 l 164 169 l -10 169 l -10 1047 l 164 1047 l 164 1221 l 694 1221 l 694 1047 l 868 1047 l 868 169 l 694 169 l 694 -6 l 164 -6 m 0 1215 l 174 1215 l 174 1042 l 0 1042 l 0 1215 m 694 1221 l 868 1221 l 868 1042 l 694 1042 l 694 1221 m 694 169 l 868 169 l 868 0 l 694 0 l 694 169 m -10 169 l 164 169 l 164 -6 l -10 -6 l -10 169 m 0 1563 l 174 1563 l 174 1389 l 0 1389 l 0 1563 m 347 1736 l 521 1736 l 521 1563 l 347 1563 l 347 1736 m 174 1736 l 347 1736 l 347 1563 l 174 1563 l 174 1736 m 347 1563 l 694 1563 l 694 1389 l 347 1389 l 347 1563 m 694 1736 l 868 1736 l 868 1563 l 694 1563 l 694 1736 z "},"ö":{"ha":1042,"x_min":-10,"x_max":868,"o":"m 347 353 l 511 353 l 511 864 l 347 864 l 347 353 m 164 -6 l 164 169 l -10 169 l -10 1047 l 164 1047 l 164 1221 l 694 1221 l 694 1047 l 868 1047 l 868 169 l 694 169 l 694 -6 l 164 -6 m 0 1215 l 174 1215 l 174 1042 l 0 1042 l 0 1215 m 694 1221 l 868 1221 l 868 1042 l 694 1042 l 694 1221 m 694 169 l 868 169 l 868 0 l 694 0 l 694 169 m -10 169 l 164 169 l 164 -6 l -10 -6 l -10 169 m 174 1736 l 347 1736 l 347 1389 l 174 1389 l 174 1736 m 521 1736 l 694 1736 l 694 1389 l 521 1389 l 521 1736 z "},"ø":{"ha":1042,"x_min":-10,"x_max":868,"o":"m -10 -6 l -10 1047 l 0 1047 l 0 1215 l 164 1215 l 164 1221 l 868 1221 l 868 0 l 694 0 l 694 -6 l -10 -6 m 511 521 l 347 521 l 347 353 l 511 353 l 511 521 m 347 694 l 511 694 l 511 864 l 347 864 l 347 694 z "},"ù":{"ha":1042,"x_min":-10,"x_max":868,"o":"m 164 -6 l 164 169 l -10 169 l -10 1221 l 347 1221 l 347 353 l 511 353 l 511 1221 l 868 1221 l 868 169 l 694 169 l 694 -6 l 164 -6 m -10 169 l 164 169 l 164 -6 l -10 -6 l -10 169 m 694 169 l 868 169 l 868 0 l 694 0 l 694 169 m 174 1563 l 521 1563 l 521 1389 l 174 1389 l 174 1563 m 0 1736 l 347 1736 l 347 1563 l 0 1563 l 0 1736 z "},"ú":{"ha":1042,"x_min":-10,"x_max":868,"o":"m 164 -6 l 164 169 l -10 169 l -10 1221 l 347 1221 l 347 353 l 511 353 l 511 1221 l 868 1221 l 868 169 l 694 169 l 694 -6 l 164 -6 m -10 169 l 164 169 l 164 -6 l -10 -6 l -10 169 m 694 169 l 868 169 l 868 0 l 694 0 l 694 169 m 347 1563 l 694 1563 l 694 1389 l 347 1389 l 347 1563 m 521 1736 l 868 1736 l 868 1563 l 521 1563 l 521 1736 z "},"û":{"ha":1042,"x_min":-10,"x_max":868,"o":"m 164 -6 l 164 169 l -10 169 l -10 1221 l 347 1221 l 347 353 l 511 353 l 511 1221 l 868 1221 l 868 169 l 694 169 l 694 -6 l 164 -6 m -10 169 l 164 169 l 164 -6 l -10 -6 l -10 169 m 694 169 l 868 169 l 868 0 l 694 0 l 694 169 m 0 1563 l 347 1563 l 347 1389 l 0 1389 l 0 1563 m 174 1736 l 694 1736 l 694 1563 l 174 1563 l 174 1736 m 521 1563 l 868 1563 l 868 1389 l 521 1389 l 521 1563 z "},"ü":{"ha":1042,"x_min":-10,"x_max":868,"o":"m 164 -6 l 164 169 l -10 169 l -10 1221 l 347 1221 l 347 353 l 511 353 l 511 1221 l 868 1221 l 868 169 l 694 169 l 694 -6 l 164 -6 m -10 169 l 164 169 l 164 -6 l -10 -6 l -10 169 m 694 169 l 868 169 l 868 0 l 694 0 l 694 169 m 174 1736 l 347 1736 l 347 1389 l 174 1389 l 174 1736 m 521 1736 l 694 1736 l 694 1389 l 521 1389 l 521 1736 z "},"ý":{"ha":1042,"x_min":-10,"x_max":868,"o":"m 694 -526 l 164 -526 l 164 -169 l 511 -169 l 511 -6 l 164 -6 l 164 169 l -10 169 l -10 1221 l 347 1221 l 347 353 l 511 353 l 511 1221 l 868 1221 l 868 -353 l 694 -353 l 694 -526 m 0 -174 l 164 -174 l 164 -526 l 0 -526 l 0 -174 m -10 169 l 164 169 l 164 -6 l -10 -6 l -10 169 m 694 -353 l 868 -353 l 868 -521 l 694 -521 l 694 -353 m 347 1563 l 694 1563 l 694 1389 l 347 1389 l 347 1563 m 521 1736 l 868 1736 l 868 1563 l 521 1563 l 521 1736 z "},"Œ":{"ha":1910,"x_min":-10,"x_max":1736,"o":"m 347 353 l 685 353 l 685 1385 l 347 1385 l 347 353 m 164 -6 l 164 169 l -10 169 l -10 1568 l 164 1568 l 164 1742 l 868 1742 l 868 1568 l 1042 1568 l 1042 169 l 868 169 l 868 -6 l 164 -6 m 0 1736 l 164 1736 l 164 1568 l 0 1568 l 0 1736 m 868 1742 l 1042 1742 l 1042 1568 l 868 1568 l 868 1742 m 868 169 l 1042 169 l 1042 0 l 868 0 l 868 169 m -10 169 l 164 169 l 164 -6 l -10 -6 l -10 169 m 1042 1736 l 1736 1736 l 1736 1389 l 1042 1389 l 1042 1736 m 1042 1042 l 1736 1042 l 1736 694 l 1042 694 l 1042 1042 m 1042 347 l 1736 347 l 1736 0 l 1042 0 l 1042 347 z "},"œ":{"ha":1563,"x_min":-10,"x_max":1389,"o":"m 347 353 l 511 353 l 511 864 l 347 864 l 347 353 m 868 694 l 1042 694 l 1042 868 l 868 868 l 868 694 m 868 347 l 1389 347 l 1389 0 l 694 0 l 694 -6 l -10 -6 l -10 1047 l 0 1047 l 0 1215 l 164 1215 l 164 1221 l 1389 1221 l 1389 521 l 868 521 l 868 347 z "},"‘":{"ha":521,"x_min":-10,"x_max":347,"o":"m 347 1038 l -10 1038 l -10 1742 l 347 1742 l 347 1038 z "},"’":{"ha":521,"x_min":-10,"x_max":347,"o":"m 347 1038 l -10 1038 l -10 1742 l 347 1742 l 347 1038 z "},"“":{"ha":1042,"x_min":-10,"x_max":868,"o":"m 868 1038 l 511 1038 l 511 1742 l 868 1742 l 868 1038 m 347 1038 l -10 1038 l -10 1742 l 347 1742 l 347 1038 z "},"”":{"ha":1042,"x_min":-10,"x_max":868,"o":"m 868 1038 l 511 1038 l 511 1742 l 868 1742 l 868 1038 m 347 1038 l -10 1038 l -10 1742 l 347 1742 l 347 1038 z "},"™":{"ha":2431,"x_min":-10,"x_max":2257,"o":"m 1215 864 l 858 864 l 858 1742 l 2257 1742 l 2257 864 l 1900 864 l 1900 1385 l 1736 1385 l 1736 864 l 1379 864 l 1379 1385 l 1215 1385 l 1215 864 m 521 864 l 164 864 l 164 1385 l -10 1385 l -10 1742 l 694 1742 l 694 1385 l 521 1385 l 521 864 z "}}}
